<svg id="Camada_1" data-name="Camada 1" xmlns="http://www.w3.org/2000/svg" viewBox="0 0 313.7 111.62"><defs><style>.cls-1{fill:#059d3a;}.cls-2{fill:#fddf07;}.cls-3{fill:#0d2b6e;}.cls-4{fill:#fff;}</style></defs><title>Logo</title><path d="M93.75,82.88q-16.38,0-26.33-7.28t-10-20.29q0-12.93,9.63-20.25t25.18-7.33q15.9,0,25.39,7.21t9.49,20.37l-.57,4.93H80.4q.46,6.39,3.91,9.49a12.23,12.23,0,0,0,8.5,3.1,13.56,13.56,0,0,0,6.87-1.76,5.83,5.83,0,0,0,3.22-5l22.86-.19q-1.55,8.14-10.4,12.57T93.75,82.88Zm9.89-35q-.87-5.33-3.9-8a11.7,11.7,0,0,0-14.78,0q-3.06,2.64-3.9,8Z" transform="translate(-0.3 -0.89)"/><path d="M198.85,77.56q0,25.44-32.56,25.44-14.1,0-22.24-4.32t-8.14-11.63l21.83-.46q0,6,9.07,6,5.12,0,7.91-2.52t2.79-9.9V78.38c-3.25,3.53-4.95,4.5-13.27,4.5q-14.66,0-22.69-7.36t-8-19.82q0-12.91,9-20.44c6-5,9.42-7.53,18.49-7.53,8.08,0,10.82,1.76,16.41,5.27V28.93h21.45ZM177,63.12V45.6a15.3,15.3,0,0,0-10.82-4.49,9,9,0,0,0-7.5,3.63q-2.8,3.65-2.81,10.84,0,6.81,2.65,10.34a8.69,8.69,0,0,0,7.35,3.53Q172,69.45,177,63.12Z" transform="translate(-0.3 -0.89)"/><path d="M313.87,81.64l-22.59.25V51.1q0-4.59-1.5-6.54t-5-2q-5.4,0-10.61,5.91V81.89l-24-.26V50.84q0-4.59-1.5-6.53c-1-1.3-4.17-2-6.53-2-3.61,0-4.32,1.61-7.76,5.55V81.27L211,81.64V28.93h23.38v6.71c6.41-5.27,8-7.9,15.79-7.9,11.14,0,13.94,3.18,17,9.54q7.6-6.21,12.91-7.87a34.68,34.68,0,0,1,10.4-1.67q23.4,0,23.39,19.43Z" transform="translate(-0.3 -0.89)"/><circle class="cls-1" cx="38.26" cy="11.5" r="11.5"/><polygon class="cls-2" points="49.09 11.5 38.55 18.88 27.34 11.5 38.55 4.13 49.09 11.5"/><circle class="cls-3" cx="38.26" cy="11.5" r="4.96"/><path class="cls-4" d="M40.26,10.58a8.07,8.07,0,0,0-5.86-.72,4.8,4.8,0,0,0-.6,1.54,8.39,8.39,0,0,1,4.87.89,8.48,8.48,0,0,1,3.6,3.3,4.8,4.8,0,0,0,1.1-2.48A9.1,9.1,0,0,0,40.26,10.58Z" transform="translate(-0.3 -0.89)"/><polygon class="cls-1" points="7.76 42.2 0 48.53 2.27 48.65 2.27 80.75 7.76 80.75 13.24 80.75 13.24 48.65 15.51 48.53 7.76 42.2"/><polygon class="cls-2" points="19.91 31.71 10.05 39.76 12.93 39.91 12.93 80.75 19.91 80.75 26.9 80.75 26.9 39.91 29.78 39.76 19.91 31.71"/><path d="M50.05,81.64h-23V28.92h23Z" transform="translate(-0.3 -0.89)"/><path class="cls-1" d="M227.93,91.33H220.8V112.1h-2.86V91.33h-7.07v-2.8h17.06Z" transform="translate(-0.3 -0.89)"/><path class="cls-1" d="M240,112.5a9,9,0,0,1-7.3-3.28c-1.82-2.2-2.72-5.16-2.72-8.9s.9-6.71,2.72-8.9A9.71,9.71,0,0,1,246,90.2a7.79,7.79,0,0,1,2.78,5.47h-2.94a4.92,4.92,0,0,0-1.77-3.55,6.1,6.1,0,0,0-4-1.32,6.19,6.19,0,0,0-5.19,2.47q-1.91,2.46-1.91,7t1.9,7a6.12,6.12,0,0,0,5.14,2.48,6,6,0,0,0,4.09-1.36,5.48,5.48,0,0,0,1.76-3.85h2.94a8.24,8.24,0,0,1-2.71,5.82A8.94,8.94,0,0,1,240,112.5Z" transform="translate(-0.3 -0.89)"/><path class="cls-1" d="M268.81,112.1H252.74V88.53h15.57v2.8H255.59v7.2h11.89v2.8H255.59v8h13.22Z" transform="translate(-0.3 -0.89)"/><path class="cls-1" d="M293.07,112.1h-2.7v-20l-6.15,20h-2.55l-6.15-20v20h-2.7V88.53h4.28l5.83,19.65,5.86-19.65h4.28Z" transform="translate(-0.3 -0.89)"/><path class="cls-1" d="M306,112.5q-4.56,0-6.81-2.23a8.12,8.12,0,0,1-2.38-5.74h2.75a5,5,0,0,0,2,3.9,7.29,7.29,0,0,0,4.31,1.26,6.35,6.35,0,0,0,3.86-1.08,3.44,3.44,0,0,0,1.46-2.92,3,3,0,0,0-1.51-2.83,20.72,20.72,0,0,0-5.21-1.75,11.6,11.6,0,0,1-5.31-2.38,5.37,5.37,0,0,1-1.61-4.07,6,6,0,0,1,2.1-4.7,8.14,8.14,0,0,1,5.56-1.83A8.94,8.94,0,0,1,311.12,90a6.76,6.76,0,0,1,2.37,5.22h-2.78q-.43-4.28-5.35-4.27a6,6,0,0,0-3.69,1,3.09,3.09,0,0,0-1.31,2.6,2.53,2.53,0,0,0,1.05,2.22,12.64,12.64,0,0,0,3.93,1.43,34.72,34.72,0,0,1,4.56,1.37,7.22,7.22,0,0,1,2.89,2.1,5.68,5.68,0,0,1,1.21,3.82,6.54,6.54,0,0,1-2.21,5A8.26,8.26,0,0,1,306,112.5Z" transform="translate(-0.3 -0.89)"/></svg>