<?xml version="1.0" encoding="UTF-8"?>
<svg width="73px" height="40px" viewBox="0 0 73 40" version="1.1" xmlns="http://www.w3.org/2000/svg" xmlns:xlink="http://www.w3.org/1999/xlink">
    <!-- Generator: sketchtool 62 (101010) - https://sketch.com -->
    <title>405B119C-B572-4486-9163-A2F522344A85</title>
    <desc>Created with sketchtool.</desc>
    <g id="Menu" stroke="none" stroke-width="1" fill="none" fill-rule="evenodd">
        <g id="Menu-(Dashboard)" transform="translate(-16.000000, -102.000000)" fill="#F58220">
            <g id="menu">
                <g id="janela">
                    <g id="id" transform="translate(16.000000, 102.000000)">
                        <g id="marca_BMG" transform="translate(0.994094, 0.000000)">
                            <path d="M5.86956522,5.97560976 C6.13043478,5.7195122 6.30434783,5.37804878 6.30434783,4.95121951 C6.30434783,4.52439024 6.13043478,4.22560976 5.86956522,3.9695122 C5.56521739,3.71341463 5.2173913,3.58536585 4.7826087,3.58536585 L2.73913043,3.58536585 L2.73913043,6.31707317 L4.7826087,6.31707317 C5.2173913,6.31707317 5.56521739,6.18902439 5.86956522,5.97560976 M5.52173913,2.60365854 C5.7826087,2.43292683 5.86956522,2.13414634 5.86956522,1.79268293 C5.86956522,1.40853659 5.7826087,1.15243902 5.52173913,0.981707317 C5.30434783,0.768292683 5,0.682926829 4.60905797,0.682926829 L2.73913043,0.682926829 L2.73913043,2.94512195 L4.60905797,2.94512195 C5,2.94512195 5.30434783,2.81707317 5.52173913,2.60365854 M5.60869565,0.256097561 C5.91304348,0.384146341 6.13043478,0.597560976 6.34782609,0.853658537 C6.52173913,1.15243902 6.60869565,1.45121951 6.60869565,1.79268293 C6.60869565,2.09146341 6.52173913,2.3902439 6.34782609,2.64634146 C6.13043478,2.8597561 5.91304348,3.07317073 5.60869565,3.20121951 C6.04347826,3.32926829 6.39130435,3.54268293 6.60869565,3.84146341 C6.86956522,4.09756098 7,4.48170732 7,4.95121951 C7,5.33536585 6.91304348,5.67682927 6.69565217,6.01829268 C6.52173913,6.31707317 6.26086957,6.57317073 5.91304348,6.74390244 C5.56521739,6.91463415 5.2173913,7 4.7826087,7 L2.39130435,7 C2.30434783,7 2.17391304,6.95731707 2.13043478,6.91463415 C2.04347826,6.87195122 2,6.78658537 2,6.65853659 L2,0.341463415 C2,0.256097561 2.04347826,0.170731707 2.08731884,0.12804878 C2.17391304,0.0426829268 2.26086957,0 2.34782609,0 L4.60905797,0 C5,0 5.30434783,0.0853658537 5.60869565,0.256097561" id="Fill-1"></path>
                            <path d="M10.4324458,6.14529915 C10.686701,5.97435897 10.9406031,5.76068376 11.0680839,5.46153846 C11.2375874,5.20512821 11.3223391,4.86324786 11.3223391,4.52136752 C11.3223391,4.17948718 11.2375874,3.83760684 11.0680839,3.58119658 C10.9406031,3.28205128 10.686701,3.06837607 10.4324458,2.8974359 C10.1358147,2.72649573 9.83918356,2.64102564 9.50017657,2.64102564 C9.16116957,2.64102564 8.86453846,2.72649573 8.56790734,2.8974359 C8.27127622,3.06837607 8.05939685,3.28205128 7.88989335,3.58119658 C7.7624126,3.83760684 7.67801398,4.17948718 7.67801398,4.52136752 C7.67801398,4.86324786 7.7624126,5.20512821 7.88989335,5.46153846 C8.05939685,5.76068376 8.27127622,5.97435897 8.56790734,6.14529915 C8.86453846,6.31623932 9.16116957,6.4017094 9.50017657,6.4017094 C9.83918356,6.4017094 10.1358147,6.31623932 10.4324458,6.14529915 M10.7714528,2.34188034 C11.1528357,2.55555556 11.4494668,2.85470085 11.660993,3.23931624 C11.9156014,3.62393162 12,4.05128205 12,4.52136752 L12,6.61538462 C12,6.7008547 11.9579773,6.78632479 11.9156014,6.87179487 C11.8308496,6.91452991 11.7460979,6.95726496 11.660993,6.95726496 C11.5342185,6.95726496 11.4494668,6.91452991 11.4070909,6.87179487 C11.3223391,6.82905983 11.3223391,6.74358974 11.3223391,6.61538462 L11.3223391,6.1025641 C11.1104598,6.35897436 10.8138287,6.61538462 10.5171975,6.74358974 C10.1781906,6.91452991 9.83918356,7 9.41542482,7 C8.99166608,7 8.56790734,6.91452991 8.18652447,6.7008547 C7.80514161,6.44444444 7.50851049,6.14529915 7.29663112,5.8034188 C7.08475175,5.41880342 7,4.99145299 7,4.52136752 C7,4.05128205 7.08475175,3.62393162 7.33900699,3.23931624 C7.55088636,2.85470085 7.84751748,2.55555556 8.22890035,2.34188034 C8.61028321,2.12820513 9.03404195,2 9.50017657,2 C9.96631118,2 10.3900699,2.12820513 10.7714528,2.34188034" id="Fill-3"></path>
                            <path d="M16.0740741,2.25862069 C16.3703704,2.47413793 16.5929012,2.73275862 16.7407407,3.07758621 C16.9262346,3.42241379 17,3.81034483 17,4.32758621 L17,6.65517241 C17,6.74102011 16.962963,6.82758621 16.9262346,6.9137931 C16.8521605,6.95689655 16.7777778,7 16.7037037,7 C16.6299383,7 16.5558642,6.95689655 16.4814815,6.9137931 C16.4444444,6.82758621 16.4074074,6.74102011 16.4074074,6.65517241 L16.4074074,4.32758621 C16.4074074,3.76724138 16.2595679,3.37931034 16.0003086,3.07758621 C15.7407407,2.81896552 15.407716,2.64655172 15.0003086,2.64655172 C14.7410494,2.64655172 14.4817901,2.73275862 14.2962963,2.81896552 C14.0743827,2.94827586 13.9259259,3.12068966 13.8151235,3.29310345 C13.6666667,3.50826149 13.6296296,3.72413793 13.6296296,3.98275862 L13.6296296,6.65517241 C13.6296296,6.78448276 13.5925926,6.87068966 13.5188272,6.9137931 C13.4817901,6.95689655 13.4074074,7 13.3333333,7 C13.2225309,7 13.1484568,6.95689655 13.1111111,6.9137931 C13.037037,6.87068966 13,6.78448276 13,6.65517241 L13,2.43067529 C13,2.30172414 13.037037,2.21551724 13.1111111,2.17241379 C13.1484568,2.0862069 13.2225309,2.04310345 13.3333333,2.04310345 C13.4074074,2.04310345 13.4817901,2.0862069 13.5188272,2.17241379 C13.5925926,2.21551724 13.6296296,2.30172414 13.6296296,2.43067529 L13.6296296,2.73275862 C13.7780864,2.47413793 14,2.30172414 14.2592593,2.17241379 C14.4817901,2.0862069 14.7780864,2 15.0373457,2 C15.407716,2 15.7777778,2.0862069 16.0740741,2.25862069" id="Fill-5"></path>
                            <path d="M21.960396,2.85470085 C22,2.94017094 22,2.98290598 22,3.06837607 C22,3.15384615 21.960396,3.23931624 21.8815182,3.32478632 C21.8023102,3.36752137 21.7623762,3.36752137 21.7227723,3.36752137 C21.6042904,3.36752137 21.5250825,3.32478632 21.4455446,3.23931624 C21.2871287,3.02564103 21.0891089,2.8974359 20.8914191,2.76923077 C20.6930693,2.68376068 20.4953795,2.64102564 20.2181518,2.64102564 C19.9409241,2.64102564 19.6633663,2.72649573 19.3861386,2.8974359 C19.1485149,3.02564103 18.990099,3.23931624 18.8320132,3.53846154 C18.7128713,3.83760684 18.6339934,4.13675214 18.6339934,4.52136752 C18.6339934,4.86324786 18.7128713,5.20512821 18.8716172,5.46153846 C18.990099,5.76068376 19.1884488,5.97435897 19.4653465,6.14529915 C19.7029703,6.31623932 19.980198,6.4017094 20.2970297,6.4017094 C20.7722772,6.4017094 21.1287129,6.27350427 21.4059406,6.01709402 C21.4854785,5.93162393 21.5646865,5.88888889 21.6435644,5.88888889 C21.6831683,5.88888889 21.7623762,5.93162393 21.8023102,5.97435897 C21.8815182,6.05982906 21.9211221,6.1025641 21.9211221,6.23076923 C21.9211221,6.27350427 21.9211221,6.35897436 21.8419142,6.4017094 C21.4455446,6.82905983 20.9310231,7 20.2970297,7 C19.8617162,7 19.4653465,6.91452991 19.1485149,6.7008547 C18.7920792,6.44444444 18.5151815,6.14529915 18.3168317,5.8034188 C18.1188119,5.41880342 18,4.99145299 18,4.52136752 C18,4.05128205 18.1188119,3.62393162 18.3168317,3.23931624 C18.4752475,2.85470085 18.7524752,2.55555556 19.1089109,2.34188034 C19.4257426,2.12820513 19.8221122,2 20.2181518,2 C20.9310231,2 21.5250825,2.2991453 21.960396,2.85470085" id="Fill-7"></path>
                            <path d="M24.5965269,2.8974359 C24.3024298,3.02564103 24.0927106,3.28205128 23.924305,3.53846154 C23.7565997,3.83760684 23.6722218,4.13675214 23.6722218,4.52136752 C23.6722218,4.86324786 23.7565997,5.20512821 23.924305,5.46153846 C24.0927106,5.76068376 24.3024298,5.97435897 24.5965269,6.14529915 C24.8489602,6.31623932 25.1430572,6.4017094 25.521182,6.4017094 C25.8572929,6.4017094 26.1510398,6.31623932 26.4451369,6.14529915 C26.6972201,5.97435897 26.9076395,5.76068376 27.0753449,5.46153846 C27.2437504,5.20512821 27.3277782,4.86324786 27.3277782,4.52136752 C27.3277782,4.13675214 27.2437504,3.83760684 27.0753449,3.53846154 C26.9076395,3.28205128 26.6972201,3.02564103 26.4451369,2.8974359 C26.1510398,2.72649573 25.8572929,2.64102564 25.521182,2.64102564 C25.1430572,2.64102564 24.8489602,2.72649573 24.5965269,2.8974359 M26.7812478,2.34188034 C27.1593726,2.55555556 27.4534696,2.85470085 27.6638891,3.23931624 C27.8736083,3.62393162 28,4.05128205 28,4.52136752 C28,4.99145299 27.8736083,5.41880342 27.6638891,5.8034188 C27.4534696,6.18803419 27.1593726,6.48717949 26.7812478,6.7008547 C26.403123,6.91452991 25.9829844,7 25.521182,7 C25.0166655,7 24.5965269,6.91452991 24.2184021,6.7008547 C23.8402773,6.48717949 23.5461802,6.18803419 23.3361109,5.8034188 C23.1263917,5.41880342 23,4.99145299 23,4.52136752 C23,4.05128205 23.1263917,3.62393162 23.3361109,3.23931624 C23.5461802,2.85470085 23.8402773,2.55555556 24.2184021,2.34188034 C24.5965269,2.12820513 25.0166655,2 25.521182,2 C25.9829844,2 26.403123,2.12820513 26.7812478,2.34188034" id="Fill-9"></path>
                            <path d="M67.0537323,25.2608474 L62.697854,25.2608474 C61.886109,25.2608474 61.1601293,25.8045933 60.9469618,26.5992989 C60.9469618,26.5992989 60.9042571,26.6411255 60.9042571,26.6829521 C60.6903777,27.7704439 61.5875321,28.7742826 62.7405587,28.7742826 L63.0821962,28.7742826 C63.2099544,28.7742826 63.3384243,28.8997624 63.3384243,29.0252422 L63.3384243,30.9492663 C63.3384243,31.2838791 63.1249009,31.5766654 62.7832634,31.6603186 C61.886109,31.8276251 60.9042571,31.8276251 59.9647539,31.618492 C56.932721,30.865613 55.0960635,27.9377504 55.9078084,25.1353675 C56.7619022,22.2911581 59.8793445,20.6180937 62.9110216,21.4127993 C63.0394915,21.4127993 63.1676056,21.4546259 63.2953638,21.4964525 C63.381129,21.5382791 63.4665384,21.5382791 63.5515919,21.5801057 C65.2601354,22.0401984 67.0110276,21.0363598 67.4804233,19.3632954 C67.9074702,17.690231 66.9256182,15.97534 65.2174307,15.5152473 C65.0035514,15.4734207 64.8330885,15.4315941 64.6619138,15.3897675 C58.0430429,13.7585297 51.2099367,17.3974447 49.4163398,23.5041297 C47.6658034,29.6526414 51.5946348,35.9684594 58.2135058,37.5996972 C61.9291696,38.5198826 65.6868264,37.8088302 68.5907453,35.9266328 C69.4878996,35.3410603 70,34.3790483 70,33.333383 L70,28.1468834 C70,26.5574723 68.6765105,25.2608474 67.0537323,25.2608474" id="Fill-11"></path>
                            <path d="M47.1723986,18.8079246 C47.1300009,18.3842584 47.0017391,17.9605923 46.7879694,17.5796459 C45.8042724,15.6304286 43.5814237,14.5712633 41.4009727,15.1643959 C39.8187206,15.588062 38.6216102,16.7743272 38.1516732,18.214792 L36.2701434,23.8495514 C36.1846355,24.0613845 35.842604,24.0613845 35.7570961,23.8495514 L33.876279,18.214792 C33.4056293,16.7743272 32.208519,15.588062 30.6269794,15.1643959 C28.4461721,14.5712633 26.2229671,15.6304286 25.2396265,17.5796459 C25.0262131,17.9605923 24.8975949,18.3842584 24.854841,18.8079246 L22.118945,33.297306 C21.6055414,35.2888899 22.8030081,37.3221342 24.7693331,37.8729002 C26.7791247,38.3812995 28.8313139,37.237401 29.3440049,35.2465232 L30.1563298,30.6709291 C30.1990837,30.4163764 30.5838692,30.4163764 30.6697334,30.6709291 L32.1233674,35.2038036 C32.6788123,36.8137349 34.2183105,38 36.0139761,38 C36.6980391,38 37.3821022,37.8305336 37.9375472,37.5339673 C38.8784902,37.0682876 39.5625532,36.2206023 39.8614745,35.2038036 L41.3582188,30.6282094 C41.4437267,30.3743628 41.8281559,30.4163764 41.8709098,30.6709291 L42.6832347,35.2465232 C43.1966383,37.237401 45.2488275,38.3812995 47.2579064,37.8729002 C49.224944,37.3221342 50.3365465,35.37327 49.9090071,33.297306 L47.1723986,18.8079246 Z" id="Fill-13"></path>
                            <path d="M59.254334,27.2792512 C59.2965382,27.574103 59.3809466,27.8693058 59.5075591,28.1216849 C59.5919675,28.4165367 59.7185801,28.7113885 59.8873969,28.9641186 L59.9296011,29.0062402 C60.0140094,29.1326053 59.9718053,29.3432137 59.8029885,29.4274571 C59.6763759,29.5117005 59.5497633,29.5117005 59.4653549,29.4274571 C58.7900879,29.0483619 58.2836376,28.374415 58.0307641,27.574103 C57.9037998,27.1953588 57.8615957,26.774142 57.8615957,26.3525741 C57.9037998,25.9313573 57.9882082,25.5522621 58.157025,25.1731669 C58.4524543,24.3732059 59.0011088,23.7410296 59.7185801,23.2780421 C60.3938472,22.8564743 61.237931,22.6879875 61.9976065,22.8143526 C62.1664232,22.8143526 62.2930358,22.9831903 62.2930358,23.1513261 C62.2511833,23.2780421 62.1664232,23.4040562 62.0398107,23.4461778 C61.4067478,23.6150156 60.8580933,23.8673947 60.3938472,24.2464899 C59.9718053,24.625585 59.6341717,25.1310452 59.4653549,25.6365055 C59.3387424,25.8892356 59.2965382,26.1840874 59.254334,26.4371685 C59.2121298,26.7316693 59.254334,27.0265211 59.254334,27.2792512 L59.254334,27.2792512 Z M70.8604868,33.3868955 C70.8604868,34.6926677 70.2274239,35.9145476 69.1301149,36.6306162 C66.8932928,38.1045242 64.318837,38.9048362 61.6177687,38.9048362 C60.4782556,38.9048362 59.3387424,38.7367005 58.2414334,38.4836193 C54.9495064,37.6415367 52.2484381,35.7457098 50.475862,33.049922 C50.4336578,32.9656786 50.2648411,33.0078003 50.2648411,33.1345164 C50.8134956,35.6196958 49.4629614,37.9360374 47.0995267,38.5678627 C46.7196889,38.6945788 46.297647,38.7367005 45.9178093,38.7367005 C43.8920081,38.7367005 42.119432,37.3466849 41.5707775,35.4087363 L41.5707775,35.3666147 L41.233144,33.4293682 C41.1909398,33.3026521 41.0643272,33.3026521 41.022123,33.3868955 L40.3468559,35.4087363 C39.9670182,36.6306162 39.1651386,37.599064 38.0678296,38.1887676 C37.3925625,38.525741 36.5906828,38.7367005 35.8310074,38.7367005 L35.7888032,38.7367005 C33.7207978,38.6945788 31.8638133,37.3884555 31.1885463,35.4087363 L30.5554834,33.4293682 C30.5132792,33.3026521 30.3866666,33.3026521 30.3444624,33.4293682 L30.0068289,35.3666147 L30.0068289,35.4087363 C29.4581744,37.3466849 27.6855983,38.7367005 25.6597971,38.7367005 C25.2799594,38.7367005 24.8579174,38.6945788 24.4780797,38.5678627 C22.9587288,38.1466459 21.8192156,36.9675897 21.3549695,35.5775741 C21.3127653,35.4087363 21.1439485,35.4087363 21.0595402,35.5354524 C20.806315,35.9145476 20.4686815,36.2936427 20.1310479,36.6306162 C18.7383096,37.9781591 16.9235293,38.7367005 14.9821365,38.7367005 L4.22041921,38.7367005 C2.53189982,38.7367005 1.13916148,37.3884555 1.13916148,35.7035881 L1.13916148,17.2964119 C1.13916148,15.6115445 2.53189982,14.2636505 4.22041921,14.2636505 L12.9141311,14.2636505 C17.0923461,14.2636505 20.5530898,17.549142 20.5530898,21.6770671 C20.5530898,23.1092044 20.1310479,24.49922 19.3291683,25.6786271 C19.2869641,25.7210998 19.3291683,25.8049922 19.3713725,25.8471139 C20.5108857,26.6895476 21.3549695,27.8271841 21.8192156,29.1326053 C21.8614198,29.2171997 22.0302366,29.2171997 22.0302366,29.1326053 L23.9716294,18.7289002 C24.0560378,18.1809672 24.2248546,17.7176287 24.4358755,17.2964119 C25.3225153,15.4430577 27.2635564,14.3057722 29.2893576,14.3057722 C29.7536037,14.3057722 30.2178498,14.3478939 30.6820959,14.47461 C32.454672,14.9375975 33.8896145,16.2854914 34.438269,18.0124805 L35.4511697,21.0452418 C35.5777822,21.3400936 35.9998241,21.3400936 36.1264367,21.0452418 L37.1393373,18.0124805 C37.6879918,16.2854914 39.1229344,14.9375975 40.8955104,14.47461 C41.3597565,14.3478939 41.8240027,14.3057722 42.2882488,14.3057722 C44.3562542,14.3057722 46.2554428,15.4430577 47.1417309,17.2964119 C47.3527518,17.7176287 47.5215686,18.1809672 47.605977,18.7289002 L48.4500608,23.2780421 C48.492265,23.5304212 48.8721027,23.5725429 48.9565111,23.3201638 L48.9565111,23.2780421 C50.475862,17.8861154 55.6669777,14.1372855 61.5755646,14.1372855 C62.7150777,14.1372855 63.8545909,14.2636505 64.9941041,14.5585023 C65.1629209,14.600624 65.3317377,14.6427457 65.5427586,14.6848674 C67.6529682,15.274571 68.8768898,17.4227769 68.3282353,19.5288612 C67.8639892,21.2558502 66.3024341,22.4773791 64.529858,22.4773791 C64.2766328,22.4773791 64.0656119,22.4352574 63.8545909,22.3931357 L63.4747532,22.3088924 C63.3481406,22.3088924 63.2637322,22.2671217 63.1793239,22.225 C63.0527113,22.1825273 62.9683029,22.1404056 62.8416903,22.1404056 C62.4618526,22.0140406 62.0398107,21.9719189 61.6177687,21.9719189 C59.4231508,21.9719189 57.4817579,23.3619345 56.9331034,25.3416537 C56.5954699,26.4792902 56.7642867,27.6583463 57.3551453,28.6692668 C57.9882082,29.7644306 59.043313,30.5647426 60.351643,30.8595944 C60.7736849,30.9863105 61.1960785,31.0284321 61.6177687,31.0284321 C61.8287897,31.0284321 62.0398107,31.0284321 62.2511833,30.9863105 C62.5040568,30.9438378 62.6728735,30.775351 62.6728735,30.5226209 L62.6728735,29.97539 C62.6728735,29.7644306 62.5040568,29.5962949 62.2930358,29.5117005 C61.7443813,29.4274571 61.1960785,29.0904836 60.8158891,28.6271451 C60.3094388,28.0374415 60.1409737,27.2792512 60.2672346,26.5210608 C60.3094388,26.4792902 60.3094388,26.4371685 60.3094388,26.3946958 C60.6048681,25.2574103 61.6599729,24.4570983 62.8416903,24.4570983 L67.1465179,24.4570983 C69.2145233,24.49922 70.8604868,26.1423167 70.8604868,28.1641576 L70.8604868,33.3868955 Z M67.1465179,23.3619345 L67.1465179,23.3619345 C66.8932928,23.3619345 66.8088844,23.024961 67.0199053,22.898947 C68.1594185,22.2671217 69.0879107,21.1719579 69.4255443,19.824064 C70.1430155,17.1279251 68.5392562,14.3478939 65.838188,13.6318253 C65.627167,13.5475819 65.4583502,13.5054602 65.2473293,13.4633385 C64.0656119,13.1684867 62.8416903,13 61.5755646,13 C56.4688573,13 51.8686004,15.6115445 49.3363488,19.6552262 C49.2519405,19.824064 48.9565111,19.7819423 48.9143069,19.5709828 L48.7454902,18.5179407 C48.6188776,17.8861154 48.4078566,17.2964119 48.1546315,16.7909516 C47.0573225,14.600624 44.7782961,13.1684867 42.2882488,13.1684867 C41.7395943,13.1684867 41.1490873,13.2527301 40.6000811,13.3790952 C38.4476673,13.9687988 36.7594996,15.5694228 36.0420283,17.675507 L35.9998241,17.8018721 C35.95762,18.0124805 35.6199864,18.0124805 35.5777822,17.8018721 L35.535578,17.675507 C34.8184585,15.5694228 33.1299391,13.9687988 30.9775253,13.3790952 C30.4288708,13.2527301 29.8380121,13.1684867 29.2893576,13.1684867 C26.7993103,13.1684867 24.5202839,14.600624 23.4229749,16.7909516 C23.1697498,17.2964119 22.9587288,17.8861154 22.8321162,18.5179407 L22.0302366,22.898947 C21.9880324,23.0670827 21.7770114,23.1513261 21.6503988,23.024961 C21.6081946,22.9831903 21.5659905,22.898947 21.6081946,22.8143526 C21.6503988,22.4352574 21.692603,22.0561622 21.692603,21.6770671 C21.6503988,17.0015601 17.6832048,13.1684867 12.9141311,13.1684867 L4.22041921,13.1684867 C1.89883694,13.1684867 0,15.0218409 0,17.2964119 L0,35.7035881 C0,37.9781591 1.89883694,39.8318643 4.22041921,39.8318643 L14.9821365,39.8318643 C17.0923461,39.8318643 19.0759431,39.1157956 20.595294,37.72578 L20.7641108,37.5569423 C20.8907234,37.4726989 21.0595402,37.4726989 21.1439485,37.599064 C21.8614198,38.5678627 22.9587288,39.326053 24.1826504,39.6630265 C24.6891007,39.7897426 25.1533468,39.8318643 25.6597971,39.8318643 C27.6433941,39.8318643 29.4159702,38.8205928 30.4288708,37.1778471 C30.5132792,37.0514821 30.7243001,37.0514821 30.8509127,37.1778471 C31.9060175,38.8205928 33.7633537,39.8318643 35.7888032,39.8318643 L35.8310074,39.8318643 C36.8017038,39.8318643 37.730196,39.6209048 38.5742799,39.1575663 C39.4605679,38.6945788 40.2202434,38.0206318 40.7688979,37.2199688 C40.8533062,37.0514821 41.0643272,37.0514821 41.1490873,37.2199688 C42.1616362,38.8205928 43.9342123,39.8318643 45.9178093,39.8318643 C46.4246113,39.8318643 46.9307099,39.7897426 47.394956,39.6630265 C49.2097363,39.1575663 50.6024746,37.8517941 51.1933333,36.1669267 C51.2355375,36.0405616 51.4465585,35.9566693 51.573171,36.0826833 C53.3035429,37.72578 55.4981609,38.9469579 57.946004,39.5366615 C59.1277214,39.8736349 60.3938472,40 61.6177687,40 C64.529858,40 67.3575389,39.1575663 69.7631778,37.5569423 C71.1559162,36.6306162 72,35.0717629 72,33.3868955 L72,28.2062793 C72,25.5522621 69.805382,23.4040562 67.1465179,23.3619345 L67.1465179,23.3619345 Z" id="Fill-15"></path>
                            <path d="M12.322697,23.0055249 C12.034813,23.3023788 11.6646765,23.4714549 11.2534137,23.4714549 L9.73139847,23.4714549 C9.52610978,23.4714549 9.32047836,23.3023788 9.32047836,23.0902394 L9.32047836,21.014733 C9.32047836,20.8032996 9.52610978,20.5911602 9.73139847,20.5911602 L11.2122874,20.5911602 C11.9525605,20.5911602 12.610581,21.184515 12.6928336,21.9045887 C12.6928336,22.3278085 12.5694547,22.7090239 12.322697,23.0055249 M12.322697,31.8581952 C12.034813,32.1546961 11.6646765,32.3241252 11.2534137,32.3241252 L9.73139847,32.3241252 C9.52610978,32.3241252 9.32047836,32.1126918 9.32047836,31.9005525 L9.32047836,29.8674033 C9.32047836,29.6136126 9.52610978,29.4438306 9.73139847,29.4438306 L11.2122874,29.4438306 C11.9525605,29.4438306 12.610581,29.9948281 12.6928336,30.7149018 C12.6928336,31.1381215 12.5694547,31.5616943 12.322697,31.8581952 M18.0803766,26.1823204 C17.9155288,26.0556016 17.8747452,25.8434622 17.9981241,25.6743861 C18.8206497,24.572744 19.3552914,23.174954 19.3552914,21.6500921 C19.3552914,17.9650092 16.394199,15 12.8158697,15 L4.22081928,15 C2.98703079,15 2,16.0165746 2,17.2449355 L2,35.7550645 C2,36.9837784 2.98703079,38 4.22081928,38 L14.7080214,38 C18.2037555,38 21,35.1197053 21,31.6040516 C21,29.3171117 19.8488068,27.3259669 18.0803766,26.1823204" id="Fill-17"></path>
                        </g>
                    </g>
                </g>
            </g>
        </g>
    </g>
</svg>